<?xml version="1.0" encoding="UTF-8" standalone="no"?>
<!-- Created with Inkscape (http://www.inkscape.org/) -->
<svg
   xmlns:svg="http://www.w3.org/2000/svg"
   xmlns="http://www.w3.org/2000/svg"
   xmlns:xlink="http://www.w3.org/1999/xlink"
   version="1.0"
   width="72pt"
   height="72pt"
   id="svg604">
  <defs
     id="defs606">
    <linearGradient
       id="linearGradient3827">
      <stop
         id="stop3829"
         style="stop-color:#ffffff;stop-opacity:1"
         offset="0" />
      <stop
         id="stop3831"
         style="stop-color:#ffffff;stop-opacity:0"
         offset="1" />
    </linearGradient>
    <linearGradient
       x1="45.103493"
       y1="97.702705"
       x2="43.400333"
       y2="105.06275"
       id="linearGradient3857"
       xlink:href="#linearGradient3827"
       gradientUnits="userSpaceOnUse" />
    <linearGradient
       id="linearGradient3817">
      <stop
         id="stop3819"
         style="stop-color:#e2d240;stop-opacity:1"
         offset="0" />
      <stop
         id="stop3821"
         style="stop-color:#99870b;stop-opacity:1"
         offset="1" />
    </linearGradient>
    <linearGradient
       x1="54"
       y1="101.5"
       x2="50.5"
       y2="120.5"
       id="linearGradient3855"
       xlink:href="#linearGradient3817"
       gradientUnits="userSpaceOnUse" />
    <linearGradient
       id="linearGradient2914">
      <stop
         id="stop2916"
         style="stop-color:#f7f7f7;stop-opacity:0"
         offset="0" />
      <stop
         id="stop2922"
         style="stop-color:#f7f7f7;stop-opacity:1"
         offset="0.23684211" />
      <stop
         id="stop2924"
         style="stop-color:#f7f7f7;stop-opacity:1"
         offset="0.799169" />
      <stop
         id="stop2918"
         style="stop-color:#f7f7f7;stop-opacity:0"
         offset="1" />
    </linearGradient>
    <linearGradient
       x1="7.4246211"
       y1="107.67068"
       x2="105.00536"
       y2="107.67068"
       id="linearGradient3853"
       xlink:href="#linearGradient2914"
       gradientUnits="userSpaceOnUse" />
    <linearGradient
       id="linearGradient2890">
      <stop
         id="stop2892"
         style="stop-color:#b4b4b4;stop-opacity:0"
         offset="0" />
      <stop
         id="stop2898"
         style="stop-color:#b4b4b4;stop-opacity:1"
         offset="0.11842106" />
      <stop
         id="stop2900"
         style="stop-color:#b4b4b4;stop-opacity:1"
         offset="0.88400275" />
      <stop
         id="stop2894"
         style="stop-color:#b4b4b4;stop-opacity:0"
         offset="1" />
    </linearGradient>
    <linearGradient
       x1="7.4246211"
       y1="108.90812"
       x2="105.00536"
       y2="108.90812"
       id="linearGradient3851"
       xlink:href="#linearGradient2890"
       gradientUnits="userSpaceOnUse" />
    <linearGradient
       id="linearGradient2902">
      <stop
         id="stop2904"
         style="stop-color:#959595;stop-opacity:0"
         offset="0" />
      <stop
         id="stop2910"
         style="stop-color:#959595;stop-opacity:1"
         offset="0.16066483" />
      <stop
         id="stop2912"
         style="stop-color:#959595;stop-opacity:1"
         offset="0.7631579" />
      <stop
         id="stop2906"
         style="stop-color:#959595;stop-opacity:0"
         offset="1" />
    </linearGradient>
    <linearGradient
       x1="7.4246211"
       y1="109.61523"
       x2="105.00536"
       y2="109.61523"
       id="linearGradient3849"
       xlink:href="#linearGradient2902"
       gradientUnits="userSpaceOnUse" />
    <linearGradient
       id="linearGradient2878">
      <stop
         id="stop2880"
         style="stop-color:#616161;stop-opacity:0"
         offset="0" />
      <stop
         id="stop2886"
         style="stop-color:#616161;stop-opacity:1"
         offset="0.14300555" />
      <stop
         id="stop2888"
         style="stop-color:#616161;stop-opacity:1"
         offset="0.77631581" />
      <stop
         id="stop2882"
         style="stop-color:#616161;stop-opacity:0"
         offset="1" />
    </linearGradient>
    <linearGradient
       x1="7.4246211"
       y1="97.240227"
       x2="105.00536"
       y2="116.74023"
       id="linearGradient3847"
       xlink:href="#linearGradient2878"
       gradientUnits="userSpaceOnUse" />
    <linearGradient
       id="linearGradient2855">
      <stop
         id="stop2857"
         style="stop-color:#959595;stop-opacity:1"
         offset="0" />
      <stop
         id="stop2864"
         style="stop-color:#dbdbdb;stop-opacity:1"
         offset="0.5" />
      <stop
         id="stop2860"
         style="stop-color:#959595;stop-opacity:1"
         offset="1" />
    </linearGradient>
    <linearGradient
       x1="46.60952"
       y1="100.5"
       x2="57.476986"
       y2="100.5"
       id="linearGradient3845"
       xlink:href="#linearGradient2855"
       gradientUnits="userSpaceOnUse"
       gradientTransform="matrix(1,0,0,1.249567,3,-33.71216)" />
    <linearGradient
       id="linearGradient612">
      <stop
         id="stop613"
         style="stop-color:#7fa8e3;stop-opacity:0.74117601"
         offset="0" />
      <stop
         id="stop614"
         style="stop-color:#ffffff;stop-opacity:0"
         offset="1" />
    </linearGradient>
    <linearGradient
       x1="50.643887"
       y1="5.3679295"
       x2="35.752094"
       y2="68.044357"
       id="linearGradient615"
       xlink:href="#linearGradient612"
       gradientUnits="userSpaceOnUse"
       spreadMethod="pad" />
    <defs
       id="defs201">
      <linearGradient
         id="linearGradient208">
        <stop
           id="stop209"
           style="stop-color:#cccccc;stop-opacity:1"
           offset="0" />
        <stop
           id="stop210"
           style="stop-color:#ffffff;stop-opacity:1"
           offset="1" />
      </linearGradient>
      <linearGradient
         x1="0.086956203"
         y1="0.0390625"
         x2="1.0608701"
         y2="0.83593601"
         id="linearGradient211"
         xlink:href="#linearGradient208"
         gradientUnits="objectBoundingBox"
         gradientTransform="scale(0.999998,1)"
         spreadMethod="pad" />
      <linearGradient
         x1="0.31007701"
         y1="0.14843699"
         x2="0.34883699"
         y2="0.17968699"
         id="linearGradient224"
         xlink:href="#linearGradient208"
         gradientUnits="objectBoundingBox"
         spreadMethod="pad" />
    </defs>
    <linearGradient
       x1="50.643887"
       y1="5.3679295"
       x2="35.752094"
       y2="68.044357"
       id="linearGradient4342"
       xlink:href="#linearGradient612"
       gradientUnits="userSpaceOnUse"
       gradientTransform="matrix(-0.8437556,-0.172454,-0.1915757,0.6862255,91.650393,8.4741167)"
       spreadMethod="pad" />
  </defs>
  <g
     transform="matrix(0.6746757,0,0,0.6783364,5.117388,1.5506375)"
     id="g3835">
    <path
       d="M 46.91169,75.502521 L 65.13961,75.502521 L 65.13961,105.54415 C 65.13961,112.95191 46.91169,111.19251 46.91169,105.54415 L 46.91169,75.502521 z"
       id="rect1971"
       style="fill:url(#linearGradient3845);fill-opacity:1;stroke:#606060;stroke-width:3.30961037;stroke-linecap:round;stroke-linejoin:miter;stroke-miterlimit:4;stroke-dashoffset:0;stroke-opacity:1" />
    <g
       transform="translate(1.5,0.5)"
       id="g2926">
      <path
         d="M 105.00536,105.37687 L 7.4246212,91.144661 L 7.4246212,104.73166 L 105.00536,128.33579 L 105.00536,105.37687 z"
         id="path2875"
         style="fill:url(#linearGradient3847);fill-opacity:1;fill-rule:evenodd;stroke:none;stroke-width:3;stroke-linecap:butt;stroke-linejoin:miter;stroke-miterlimit:4;stroke-dasharray:none;stroke-opacity:1" />
      <path
         d="M 105.00536,108.90812 L 7.4246212,92.644661 L 7.4246212,102.54416 L 105.00536,126.58579 L 105.00536,108.90812 z"
         id="path2869"
         style="fill:url(#linearGradient3849);fill-opacity:1;fill-rule:evenodd;stroke:none;stroke-width:3;stroke-linecap:butt;stroke-linejoin:miter;stroke-miterlimit:4;stroke-dasharray:none;stroke-opacity:1" />
      <path
         d="M 105.00536,112.42156 L 7.4246212,94.765981 L 7.4246212,100.02509 L 105.00536,123.05026 L 105.00536,112.42156 z"
         id="path2871"
         style="fill:url(#linearGradient3851);fill-opacity:1;fill-rule:evenodd;stroke:none;stroke-width:3;stroke-linecap:butt;stroke-linejoin:miter;stroke-miterlimit:4;stroke-dasharray:none;stroke-opacity:1" />
      <path
         d="M 105.00536,115.24999 L 7.4246212,96.180195 L 7.4246212,97.992158 L 105.00536,119.16117 L 105.00536,115.24999 z"
         id="path2873"
         style="fill:url(#linearGradient3853);fill-opacity:1;fill-rule:evenodd;stroke:none;stroke-width:3;stroke-linecap:butt;stroke-linejoin:miter;stroke-miterlimit:4;stroke-dasharray:none;stroke-opacity:1" />
    </g>
    <path
       d="M 32.085786,112.56066 C 26.576909,103.75835 30.53251,97.853644 33.15901,94.974874 C 35.874466,91.671363 40.777971,94.202649 44.75,94.25 C 44.847923,90.989419 42.568302,84.332346 45.59099,85.25 C 54.257657,91.939973 59.565566,89.137586 66.994796,86.823223 C 72.113896,84.957977 68.355028,93.746293 69,97.25 C 74.165137,97.824753 84.475041,99.088369 82.25,101.75 C 71.594031,108.50119 75.492701,116.814 80.25,123 C 77.593576,128.38566 36.219184,115.42133 32.085786,112.56066 z"
       id="path2942"
       style="fill:url(#linearGradient3855);fill-opacity:1;fill-rule:evenodd;stroke:#a18a09;stroke-width:2.94723558;stroke-linecap:butt;stroke-linejoin:miter;stroke-miterlimit:4;stroke-dasharray:none;stroke-opacity:1" />
    <path
       d="M 36.017846,97.301011 L 57.355304,100.84026 C 59.700167,101.70723 59.629986,108.02792 55.948439,106.92009 L 33.67307,102.43406 C 30.953143,101.78602 33.536688,96.796147 36.017846,97.301011 z"
       id="path3825"
       style="fill:url(#linearGradient3857);fill-opacity:1;fill-rule:evenodd;stroke:none;stroke-width:1px;stroke-linecap:butt;stroke-linejoin:miter;stroke-opacity:1" />
  </g>
  <path
     d="M 70.693286,56.726061 C 73.35765,56.346175 77.448506,54.268121 76.788781,50.188452 C 77.106994,45.939882 71.867313,6.8443299 68.852892,4.4620168 C 67.106112,2.5058561 64.096949,1.2919773 59.321935,1.3511467 C 55.390136,1.3048978 19.804541,1.5682958 17.42981,2.5432359 C 15.054967,3.5182387 13.194067,4.3237499 13.858572,7.5960961 C 14.507643,9.338753 17.501533,46.201396 17.072952,48.452984 C 17.25328,51.002544 18.930634,54.382062 23.152053,55.023438 C 27.373374,55.664795 67.469989,56.637983 70.693286,56.726061 z"
     id="path630"
     style="font-size:12px;fill:#3d4e67;fill-rule:evenodd;stroke-width:1pt" />
  <path
     d="M 66.49094,52.542157 C 69.165284,52.524023 72.93766,52.713056 72.517546,49.496358 C 72.295827,41.785165 68.425439,11.597324 64.20311,7.1399996 C 63.244767,6.0875628 59.282785,4.9911886 51.050052,5.3546643 C 41.669675,5.6757762 22.53996,6.7713408 20.584105,7.0994125 C 18.628339,7.427499 17.969598,7.3031651 18.389689,10.519942 C 19.468325,13.861011 20.573554,40.912362 21.473091,45.614004 C 22.08764,48.954642 21.9933,50.418378 24.627988,50.91566"
     id="path631"
     style="font-size:12px;fill:#ffffff;fill-rule:evenodd;stroke-width:1pt" />
  <path
     d="M 64.758252,12.951665 C 64.758252,12.951665 63.318874,8.1238026 56.367828,8.0631791 C 49.416773,8.00259 22.020198,8.2967661 21.804935,10.066222 C 21.589673,11.835678 23.522025,22.884668 23.546232,23.796342 C 23.570438,24.708016 47.948149,29.237176 55.91951,35.626747 C 63.890873,42.016317 69.668774,47.277524 69.668774,47.277524 C 69.668774,47.277524 66.881671,21.319526 64.758252,12.951665 z"
     id="path632"
     style="font-size:12px;fill:url(#linearGradient4342);fill-rule:evenodd;stroke-width:1pt" />
  <path
     d="M 60.84267,13.76643 L 22.478118,14.203035"
     id="path633"
     style="font-size:12px;fill:none;fill-rule:evenodd;stroke:#42667e;stroke-width:0.83803082pt" />
  <path
     d="M 62.102601,25.94268 L 24.038499,26.574912"
     id="path634"
     style="font-size:12px;fill:none;fill-rule:evenodd;stroke:#42667e;stroke-width:0.83803062pt" />
  <path
     d="M 63.712417,36.907549 L 25.347865,37.344154"
     id="path635"
     style="font-size:12px;fill:none;fill-rule:evenodd;stroke:#42667e;stroke-width:0.83803082pt" />
  <path
     d="M 36.474232,29.658768 L 39.623761,47.215645 L 30.069834,47.663019 L 26.984701,29.934117 L 36.474232,29.658768 z"
     id="path626"
     style="font-size:12px;fill:#4e9f3d;fill-opacity:1;fill-rule:evenodd;stroke-width:1pt" />
  <path
     d="M 47.868847,20.146322 L 51.018376,46.992492 L 41.464449,47.676571 L 38.379316,20.567356 L 47.868847,20.146322 z"
     id="path4346"
     style="font-size:12px;fill:#f6af09;fill-opacity:1;fill-rule:evenodd;stroke-width:1pt" />
  <path
     d="M 59.554058,11.691153 L 62.703587,46.952331 L 53.14966,47.850836 L 50.064527,12.24416 L 59.554058,11.691153 z"
     id="path5118"
     style="font-size:12px;fill:#f61509;fill-opacity:1;fill-rule:evenodd;stroke-width:1pt" />
  <path
     d="M 66.687057,47.186229 L 28.622954,47.818462"
     id="path639"
     style="font-size:12px;fill:none;fill-rule:evenodd;stroke:#42667e;stroke-width:0.83803062pt" />
</svg>
